<?xml version="1.0" encoding="utf-8"?>
<!-- Generator: Adobe Illustrator 18.1.0, SVG Export Plug-In . SVG Version: 6.00 Build 0)  -->
<svg version="1.1" id="图层_1" xmlns="http://www.w3.org/2000/svg" xmlns:xlink="http://www.w3.org/1999/xlink" x="0px" y="0px"
	 viewBox="0 0 557.8 163" enable-background="new 0 0 557.8 163" xml:space="preserve">
<g>
	<g>
		<path fill="#5873B3" d="M89.7,46.6c-4.3-4.3-9.4-7.6-15.3-9.8c-5.9-2.2-12.2-3.3-19-3.3H9.8v105.8h45.6c8.1,0,15.1-1.4,21.1-4.1
			c6-2.7,11-6.4,15-11.2c4-4.7,7-10.4,9-16.9c2-6.5,3-13.6,3-21.3c0-8.8-1.2-16.4-3.6-23C97.3,56.3,94,50.9,89.7,46.6z M77.9,102.8
			c-1.5,4.1-3.5,7.3-5.9,9.9c-2.5,2.5-5.3,4.3-8.4,5.4c-3.2,1.1-6.4,1.6-9.8,1.6H33V53.1h16.6c5.7,0,10.5,0.8,14.4,2.4
			c3.9,1.6,7,4,9.4,7c2.4,3.1,4.1,6.7,5.1,11c1,4.3,1.6,9.1,1.6,14.4C80.1,93.9,79.4,98.8,77.9,102.8z"/>
		<polygon fill="#5873B3" points="111.4,33.6 111.4,22.1 103.3,22.1 103.3,33.6 91.9,33.6 91.9,41.6 103.3,41.6 103.3,53.1 
			111.4,53.1 111.4,41.6 122.8,41.6 122.8,33.6 		"/>
	</g>
	<rect x="130.7" y="58.6" fill="#5873B3" width="1.8" height="63.4"/>
	<g>
		<path fill="#5873B3" d="M89.7,46.6c-4.3-4.3-9.4-7.6-15.3-9.8c-5.9-2.2-12.2-3.3-19-3.3H9.8v105.8h45.6c8.1,0,15.1-1.4,21.1-4.1
			c6-2.7,11-6.4,15-11.2c4-4.7,7-10.4,9-16.9c2-6.5,3-13.6,3-21.3c0-8.8-1.2-16.4-3.6-23C97.3,56.3,94,50.9,89.7,46.6z M77.9,102.8
			c-1.5,4.1-3.5,7.3-5.9,9.9c-2.5,2.5-5.3,4.3-8.4,5.4c-3.2,1.1-6.4,1.6-9.8,1.6H33V53.1h16.6c5.7,0,10.5,0.8,14.4,2.4
			c3.9,1.6,7,4,9.4,7c2.4,3.1,4.1,6.7,5.1,11c1,4.3,1.6,9.1,1.6,14.4C80.1,93.9,79.4,98.8,77.9,102.8z"/>
		<polygon fill="#5873B3" points="111.4,33.6 111.4,22.1 103.3,22.1 103.3,33.6 91.9,33.6 91.9,41.6 103.3,41.6 103.3,53.1 
			111.4,53.1 111.4,41.6 122.8,41.6 122.8,33.6 		"/>
	</g>
	<rect x="130.7" y="58.6" fill="#5873B3" width="1.8" height="63.4"/>
	<g>
		<polygon fill="#5873B3" points="219.1,112.7 210,119.2 173.4,72.9 182.4,66.3 		"/>
		<polygon fill="#5873B3" points="180.9,118.5 172.7,110.9 211.1,66.3 219.9,73 		"/>
	</g>
	<polygon fill="#5873B3" points="162.4,130.6 150.5,130.6 155.4,47.4 167.3,47.4 	"/>
	<polygon fill="#5873B3" points="226.1,130.6 238,130.6 236.2,47.4 224.3,47.4 	"/>
	<polygon fill="#5873B3" points="234.2,54.3 156.4,54.3 156.8,47.4 234.2,47.4 	"/>
	<rect x="226.1" y="123.7" fill="#5873B3" width="16.1" height="7"/>
	<polygon fill="#5873B3" points="331.5,80.6 318.5,80.6 309.9,66.9 322.6,66.8 	"/>
	<polygon fill="#5873B3" points="327.6,118.2 316.3,116.7 331.8,85.5 344.3,85.5 	"/>
	<polygon fill="#5873B3" points="339.7,92.5 297,92.5 297,85.5 343.8,85.5 	"/>
	<polygon fill="#5873B3" points="345.2,121.3 340.4,131.6 301.5,120.1 301.5,108.7 	"/>
	<polygon fill="#5873B3" points="348.5,58.2 325.7,46.4 325.7,46.4 311.3,46.4 288.9,58.2 288.9,68.7 318.9,54 348.5,68.7 	"/>
	<polygon fill="#5873B3" points="263.1,71 251.1,71 263.5,46.8 275.5,46.8 	"/>
	<polygon fill="#5873B3" points="257.8,131.5 257.7,119.6 289.2,104.2 289.2,116.5 	"/>
	<rect x="263.7" y="57.5" fill="#5873B3" width="22.3" height="7"/>
	<rect x="258.6" y="74" fill="#5873B3" width="27.3" height="7"/>
	<rect x="257.7" y="89" fill="#5873B3" width="28.2" height="7"/>
	<rect x="264.1" y="78.2" fill="#5873B3" width="11.1" height="44"/>
</g>
<g>
	<path fill="#5873B3" d="M-1045.8,110h-37.2v21.2h-12.7V110h-37.1V60.6h37.1V46.7h12.7v13.9h22.4V67h-22.4v36.5h25.1V60.6h12.1V110z
		 M-1095.7,67h-24.9v36.5h24.9V67z"/>
	<path fill="#5873B3" d="M-1022.5,70.5h-7.5v-5.9h22.2V47.1h12.1v17.5h22.2l-2.9,5.9h-19.4v22h-12.1v-22h-3.2l-4.4,19.9h-11.5
		L-1022.5,70.5z M-975.7,131l-24.9-7.7l-25.5,8.2l-0.5-9.1l11.7-3.6l-11.7-3.6l3.3-12.7h-6.7v-7h8.6l1.3-4.7h12.1l-1.3,4.7h34
		l-0.2,18.7l-10.8,4.1l10.5,3.3V131z M-1011,62.2h-12l-2.9-13.1h11.8L-1011,62.2z M-987.3,110v-7.3h-23.9l-2.1,7.3l13.3,4.3
		L-987.3,110z M-980.4,65.5h-11.8l3.4-16.3h12L-980.4,65.5z M-975.9,90.4h-12.8l-3.4-16.5h11.8L-975.9,90.4z M-957.7,46.2l-2.9,8.4
		h23.3l-14.3,46.1l11,29.4h-12.8l-4.3-12.5l-4.5,12.5h-12.7l10.5-30.1l-10.7-28.9h12.6l4.3,11.6l1.4-4.4L-951,61h-24.3l5.6-14.7
		H-957.7z"/>
	<path fill="#5873B3" d="M-909.5,67.7l5.9-9.8h-6.2l-2.8,5.5h-13.3l8.4-16.9h13.4l-2.6,5.5l29.3-0.1l-2.5,6.1h-10.2l-6,9.8h21.4
		l-2.7,6.9h-22.8l-9.9,16.5h-13.3l9.9-16.5h-11.4v-6.9H-909.5z M-917.4,94.1h62.3l0.1,6.5h-50.2v8.3h53V94.1h12.1v37h-77.2V94.1z
		 M-905.3,115.3v9.4h53v-9.4H-905.3z M-876.1,91.1h-13.3L-900,78.2h13.4L-876.1,91.1z M-835.5,88.5h-39V50h24.2l0,6.5h-12V82h14.8
		V50h12.1V88.5z"/>
	<g>
		<polygon fill="#5873B3" points="-815.4,92.9 -802.2,92.9 -807.8,71.8 -821,71.8 		"/>
		<polygon fill="#5873B3" points="-803.1,68.6 -808.5,47.8 -822,47.8 -816.3,68.6 		"/>
		<polygon fill="#5873B3" points="-780,123.6 -780,56.5 -737.3,56.5 -737.3,50.6 -792.6,50.6 -792.6,129.5 -737.3,129.5 
			-737.3,123.6 		"/>
		<polygon fill="#5873B3" points="-823.2,130.5 -810,130.5 -798.7,99.5 -812.1,99.5 		"/>
	</g>
</g>
<g>
	<path fill="#5873B3" d="M-1195.9,46.6c-4.3-4.4-9.4-7.6-15.3-9.8c-5.9-2.2-12.3-3.3-19.1-3.3h-45.8v106.1h45.8
		c8.1,0,15.2-1.4,21.2-4.1c6-2.7,11-6.5,15-11.2c4-4.8,7-10.4,9-16.9c2-6.5,3-13.7,3-21.4c0-8.8-1.2-16.5-3.6-23
		C-1188.2,56.4-1191.6,51-1195.9,46.6z M-1207.7,103.1c-1.5,4.1-3.5,7.4-5.9,9.9c-2.5,2.5-5.3,4.3-8.5,5.4c-3.2,1.1-6.4,1.6-9.8,1.6
		h-20.8V53.2h16.7c5.7,0,10.6,0.8,14.5,2.5c3.9,1.6,7.1,4,9.4,7.1c2.4,3.1,4.1,6.8,5.1,11.1c1,4.3,1.6,9.1,1.6,14.5
		C-1205.5,94.1-1206.2,99-1207.7,103.1z"/>
	<polygon fill="#5873B3" points="-1174.1,33.6 -1174.1,22.1 -1182.2,22.1 -1182.2,33.6 -1193.7,33.6 -1193.7,41.7 -1182.2,41.7 
		-1182.2,53.2 -1174.1,53.2 -1174.1,41.7 -1162.6,41.7 -1162.6,33.6 	"/>
</g>
<g>
	<g>
		<path fill="#231815" d="M-391,110h-37.2v21.2h-12.7V110h-37.1V60.6h37.1V46.7h12.7v13.9h22.4V67h-22.4v36.5h25.1V60.6h12.1V110z
			 M-440.8,67h-24.9v36.5h24.9V67z"/>
		<path fill="#231815" d="M-367.6,70.5h-7.5v-5.9h22.2V47.1h12.1v17.5h22.2l-2.9,5.9h-19.4v22h-12.1v-22h-3.2l-4.4,19.9H-372
			L-367.6,70.5z M-320.8,131l-24.9-7.7l-25.5,8.2l-0.5-9.1l11.7-3.6l-11.7-3.6l3.3-12.7h-6.7v-7h8.6l1.3-4.7h12.1l-1.3,4.7h34
			l-0.2,18.7l-10.8,4.1l10.5,3.3V131z M-356.1,62.2h-12l-2.9-13.1h11.8L-356.1,62.2z M-332.4,110v-7.3h-23.9l-2.1,7.3l13.3,4.3
			L-332.4,110z M-325.6,65.5h-11.8l3.4-16.3h12L-325.6,65.5z M-321,90.4h-12.8l-3.4-16.5h11.8L-321,90.4z M-302.9,46.2l-2.9,8.4
			h23.3l-14.3,46.1l11,29.4h-12.8l-4.3-12.5l-4.5,12.5h-12.7l10.5-30.1l-10.7-28.9h12.6l4.3,11.6l1.4-4.4l5.8-17.4h-24.3l5.6-14.7
			H-302.9z"/>
		<path fill="#231815" d="M-254.6,67.7l5.9-9.8h-6.2l-2.8,5.5H-271l8.4-16.9h13.4l-2.6,5.5l29.3-0.1l-2.5,6.1h-10.2l-6,9.8h21.4
			l-2.7,6.9h-22.8l-9.9,16.5h-13.3l9.9-16.5H-270v-6.9H-254.6z M-262.6,94.1h62.3l0.1,6.5h-50.2v8.3h53V94.1h12.1v37h-77.2V94.1z
			 M-250.5,115.3v9.4h53v-9.4H-250.5z M-221.2,91.1h-13.3l-10.7-12.9h13.4L-221.2,91.1z M-180.7,88.5h-39V50h24.2l0,6.5h-12V82h14.8
			V50h12.1V88.5z"/>
		<g>
			<polygon fill="#231815" points="-160.5,92.9 -147.3,92.9 -153,71.8 -166.2,71.8 			"/>
			<polygon fill="#231815" points="-148.3,68.6 -153.7,47.8 -167.1,47.8 -161.4,68.6 			"/>
			<polygon fill="#231815" points="-125.2,123.6 -125.2,56.5 -82.4,56.5 -82.4,50.6 -137.8,50.6 -137.8,129.5 -82.4,129.5 
				-82.4,123.6 			"/>
			<polygon fill="#231815" points="-168.4,130.5 -155.2,130.5 -143.8,99.5 -157.2,99.5 			"/>
		</g>
	</g>
</g>
<g>
	<g>
		<path fill="#231815" d="M-541,46.6c-4.3-4.4-9.4-7.6-15.3-9.8c-5.9-2.2-12.3-3.3-19.1-3.3h-45.8v106.1h45.8
			c8.1,0,15.2-1.4,21.2-4.1c6-2.7,11-6.5,15-11.2c4-4.8,7-10.4,9-16.9c2-6.5,3-13.7,3-21.4c0-8.8-1.2-16.5-3.6-23
			C-533.3,56.4-536.7,51-541,46.6z M-552.8,103.1c-1.5,4.1-3.5,7.4-5.9,9.9c-2.5,2.5-5.3,4.3-8.5,5.4c-3.2,1.1-6.4,1.6-9.8,1.6
			h-20.8V53.2h16.7c5.7,0,10.6,0.8,14.5,2.5c3.9,1.6,7.1,4,9.4,7.1c2.4,3.1,4.1,6.8,5.1,11.1c1,4.3,1.6,9.1,1.6,14.5
			C-550.6,94.1-551.3,99-552.8,103.1z"/>
		<polygon fill="#231815" points="-519.2,33.6 -519.2,22.1 -527.3,22.1 -527.3,33.6 -538.8,33.6 -538.8,41.7 -527.3,41.7 
			-527.3,53.2 -519.2,53.2 -519.2,41.7 -507.8,41.7 -507.8,33.6 		"/>
	</g>
</g>
<g>
	<g>
		<path fill="#595757" d="M-1045.8,333.3h-37.2v21.2h-12.7v-21.2h-37.1v-49.4h37.1V270h12.7v13.9h22.4v6.5h-22.4v36.5h25.1v-42.9
			h12.1V333.3z M-1095.7,290.4h-24.9v36.5h24.9V290.4z"/>
		<path fill="#595757" d="M-1022.5,293.8h-7.5v-5.9h22.2v-17.5h12.1v17.5h22.2l-2.9,5.9h-19.4v22h-12.1v-22h-3.2l-4.4,19.9h-11.5
			L-1022.5,293.8z M-975.7,354.4l-24.9-7.7l-25.5,8.2l-0.5-9.1l11.7-3.6l-11.7-3.6l3.3-12.7h-6.7v-7h8.6l1.3-4.7h12.1l-1.3,4.7h34
			l-0.2,18.7l-10.8,4.1l10.5,3.3V354.4z M-1011,285.6h-12l-2.9-13.1h11.8L-1011,285.6z M-987.3,333.4V326h-23.9l-2.1,7.3l13.3,4.3
			L-987.3,333.4z M-980.4,288.8h-11.8l3.4-16.3h12L-980.4,288.8z M-975.9,313.8h-12.8l-3.4-16.5h11.8L-975.9,313.8z M-957.7,269.6
			l-2.9,8.4h23.3l-14.3,46.1l11,29.4h-12.8l-4.3-12.5l-4.5,12.5h-12.7l10.5-30.1l-10.7-28.9h12.6l4.3,11.6l1.4-4.4l5.8-17.4h-24.3
			l5.6-14.7H-957.7z"/>
		<path fill="#595757" d="M-909.5,291.1l5.9-9.8h-6.2l-2.8,5.5h-13.3l8.4-16.9h13.4l-2.6,5.5l29.3-0.1l-2.5,6.1h-10.2l-6,9.8h21.4
			l-2.7,6.9h-22.8l-9.9,16.5h-13.3l9.9-16.5h-11.4v-6.9H-909.5z M-917.4,317.5h62.3l0.1,6.5h-50.2v8.3h53v-14.7h12.1v37h-77.2V317.5
			z M-905.3,338.7v9.4h53v-9.4H-905.3z M-876.1,314.5h-13.3l-10.7-12.9h13.4L-876.1,314.5z M-835.5,311.9h-39v-38.5h24.2l0,6.5h-12
			v25.6h14.8v-32h12.1V311.9z"/>
		<g>
			<polygon fill="#595757" points="-815.4,316.3 -802.2,316.3 -807.8,295.1 -821,295.1 			"/>
			<polygon fill="#595757" points="-803.1,292 -808.5,271.1 -822,271.1 -816.3,292 			"/>
			<polygon fill="#595757" points="-780,347 -780,279.8 -737.3,279.8 -737.3,273.9 -792.6,273.9 -792.6,352.9 -737.3,352.9 
				-737.3,347 			"/>
			<polygon fill="#595757" points="-823.2,353.8 -810,353.8 -798.7,322.9 -812.1,322.9 			"/>
		</g>
	</g>
</g>
<g>
	<g>
		<path fill="#595757" d="M-1195.9,270c-4.3-4.4-9.4-7.6-15.3-9.8c-5.9-2.2-12.3-3.3-19.1-3.3h-45.8v106.1h45.8
			c8.1,0,15.2-1.4,21.2-4.1c6-2.7,11-6.5,15-11.2c4-4.8,7-10.4,9-16.9c2-6.5,3-13.7,3-21.4c0-8.8-1.2-16.5-3.6-23
			C-1188.2,279.8-1191.6,274.4-1195.9,270z M-1207.7,326.5c-1.5,4.1-3.5,7.4-5.9,9.9c-2.5,2.5-5.3,4.3-8.5,5.4
			c-3.2,1.1-6.4,1.6-9.8,1.6h-20.8v-66.9h16.7c5.7,0,10.6,0.8,14.5,2.5c3.9,1.6,7.1,4,9.4,7.1c2.4,3.1,4.1,6.8,5.1,11.1
			c1,4.3,1.6,9.1,1.6,14.5C-1205.5,317.5-1206.2,322.4-1207.7,326.5z"/>
		<polygon fill="#595757" points="-1174.1,257 -1174.1,245.5 -1182.2,245.5 -1182.2,257 -1193.7,257 -1193.7,265.1 -1182.2,265.1 
			-1182.2,276.5 -1174.1,276.5 -1174.1,265.1 -1162.6,265.1 -1162.6,257 		"/>
	</g>
</g>
<g>
	<g>
		<path fill="#FFFFFF" d="M-391,333.3h-37.2v21.2h-12.7v-21.2h-37.1v-49.4h37.1V270h12.7v13.9h22.4v6.5h-22.4v36.5h25.1v-42.9h12.1
			V333.3z M-440.8,290.4h-24.9v36.5h24.9V290.4z"/>
		<path fill="#FFFFFF" d="M-367.6,293.8h-7.5v-5.9h22.2v-17.5h12.1v17.5h22.2l-2.9,5.9h-19.4v22h-12.1v-22h-3.2l-4.4,19.9H-372
			L-367.6,293.8z M-320.8,354.4l-24.9-7.7l-25.5,8.2l-0.5-9.1l11.7-3.6l-11.7-3.6l3.3-12.7h-6.7v-7h8.6l1.3-4.7h12.1l-1.3,4.7h34
			l-0.2,18.7l-10.8,4.1l10.5,3.3V354.4z M-356.1,285.6h-12l-2.9-13.1h11.8L-356.1,285.6z M-332.4,333.4V326h-23.9l-2.1,7.3l13.3,4.3
			L-332.4,333.4z M-325.6,288.8h-11.8l3.4-16.3h12L-325.6,288.8z M-321,313.8h-12.8l-3.4-16.5h11.8L-321,313.8z M-302.9,269.6
			l-2.9,8.4h23.3l-14.3,46.1l11,29.4h-12.8l-4.3-12.5l-4.5,12.5h-12.7l10.5-30.1l-10.7-28.9h12.6l4.3,11.6l1.4-4.4l5.8-17.4h-24.3
			l5.6-14.7H-302.9z"/>
		<path fill="#FFFFFF" d="M-254.6,291.1l5.9-9.8h-6.2l-2.8,5.5H-271l8.4-16.9h13.4l-2.6,5.5l29.3-0.1l-2.5,6.1h-10.2l-6,9.8h21.4
			l-2.7,6.9h-22.8l-9.9,16.5h-13.3l9.9-16.5H-270v-6.9H-254.6z M-262.6,317.5h62.3l0.1,6.5h-50.2v8.3h53v-14.7h12.1v37h-77.2V317.5z
			 M-250.5,338.7v9.4h53v-9.4H-250.5z M-221.2,314.5h-13.3l-10.7-12.9h13.4L-221.2,314.5z M-180.7,311.9h-39v-38.5h24.2l0,6.5h-12
			v25.6h14.8v-32h12.1V311.9z"/>
		<g>
			<polygon fill="#FFFFFF" points="-160.5,316.3 -147.3,316.3 -153,295.1 -166.2,295.1 			"/>
			<polygon fill="#FFFFFF" points="-148.3,292 -153.7,271.1 -167.1,271.1 -161.4,292 			"/>
			<polygon fill="#FFFFFF" points="-125.2,347 -125.2,279.8 -82.4,279.8 -82.4,273.9 -137.8,273.9 -137.8,352.9 -82.4,352.9 
				-82.4,347 			"/>
			<polygon fill="#FFFFFF" points="-168.4,353.8 -155.2,353.8 -143.8,322.9 -157.2,322.9 			"/>
		</g>
	</g>
</g>
<g>
	<g>
		<path fill="#FFFFFF" d="M-541,270c-4.3-4.4-9.4-7.6-15.3-9.8c-5.9-2.2-12.3-3.3-19.1-3.3h-45.8v106.1h45.8
			c8.1,0,15.2-1.4,21.2-4.1c6-2.7,11-6.5,15-11.2c4-4.8,7-10.4,9-16.9c2-6.5,3-13.7,3-21.4c0-8.8-1.2-16.5-3.6-23
			C-533.3,279.8-536.7,274.4-541,270z M-552.8,326.5c-1.5,4.1-3.5,7.4-5.9,9.9c-2.5,2.5-5.3,4.3-8.5,5.4c-3.2,1.1-6.4,1.6-9.8,1.6
			h-20.8v-66.9h16.7c5.7,0,10.6,0.8,14.5,2.5c3.9,1.6,7.1,4,9.4,7.1c2.4,3.1,4.1,6.8,5.1,11.1c1,4.3,1.6,9.1,1.6,14.5
			C-550.6,317.5-551.3,322.4-552.8,326.5z"/>
		<polygon fill="#FFFFFF" points="-519.2,257 -519.2,245.5 -527.3,245.5 -527.3,257 -538.8,257 -538.8,265.1 -527.3,265.1 
			-527.3,276.5 -519.2,276.5 -519.2,265.1 -507.8,265.1 -507.8,257 		"/>
	</g>
</g>
</svg>
